<svg width="90" height="17" viewBox="0 0 90 17" fill="none" xmlns="http://www.w3.org/2000/svg">
    <path d="M5.73225 16.288C4.67625 16.288 3.65225 16.088 2.66025 15.688C1.68425 15.288 0.82025 14.72 0.0682501 13.984L1.70025 12.088C2.26025 12.616 2.90025 13.048 3.62025 13.384C4.34025 13.704 5.06025 13.864 5.78025 13.864C6.67625 13.864 7.35625 13.68 7.82025 13.312C8.28425 12.944 8.51625 12.456 8.51625 11.848C8.51625 11.528 8.45225 11.256 8.32425 11.032C8.21225 10.808 8.04425 10.616 7.82025 10.456C7.61225 10.28 7.35625 10.12 7.05225 9.976C6.76425 9.832 6.44425 9.688 6.09225 9.544L3.93225 8.608C3.54825 8.448 3.16425 8.248 2.78025 8.008C2.41225 7.768 2.07625 7.48 1.77225 7.144C1.46825 6.808 1.22025 6.416 1.02825 5.968C0.85225 5.52 0.76425 5.008 0.76425 4.432C0.76425 3.808 0.89225 3.232 1.14825 2.704C1.42025 2.16 1.78825 1.688 2.25225 1.288C2.71625 0.888 3.26825 0.576 3.90825 0.352C4.56425 0.128 5.27625 0.0159998 6.04425 0.0159998C6.95625 0.0159998 7.83625 0.2 8.68425 0.568C9.53225 0.919999 10.2603 1.4 10.8683 2.008L9.45225 3.784C8.94025 3.368 8.41225 3.04 7.86825 2.8C7.32425 2.56 6.71625 2.44 6.04425 2.44C5.29225 2.44 4.69225 2.608 4.24425 2.944C3.79625 3.264 3.57225 3.712 3.57225 4.288C3.57225 4.592 3.63625 4.856 3.76425 5.08C3.90825 5.288 4.09225 5.48 4.31625 5.656C4.55625 5.816 4.82825 5.968 5.13225 6.112C5.43625 6.24 5.74825 6.368 6.06825 6.496L8.20425 7.384C8.66825 7.576 9.09225 7.8 9.47625 8.056C9.86025 8.312 10.1883 8.608 10.4603 8.944C10.7483 9.28 10.9723 9.672 11.1323 10.12C11.2923 10.552 11.3723 11.056 11.3723 11.632C11.3723 12.272 11.2443 12.872 10.9883 13.432C10.7323 13.992 10.3563 14.488 9.86025 14.92C9.38025 15.336 8.78825 15.672 8.08425 15.928C7.39625 16.168 6.61225 16.288 5.73225 16.288ZM13.9864 16V4.216H16.2664L16.4584 5.824H16.5544C17.0504 5.296 17.5864 4.848 18.1624 4.48C18.7544 4.112 19.4184 3.928 20.1544 3.928C21.0184 3.928 21.7064 4.112 22.2184 4.48C22.7464 4.848 23.1464 5.368 23.4184 6.04C23.9784 5.432 24.5624 4.928 25.1704 4.528C25.7784 4.128 26.4584 3.928 27.2104 3.928C28.4584 3.928 29.3784 4.336 29.9704 5.152C30.5624 5.952 30.8584 7.104 30.8584 8.608V16H28.0744V8.968C28.0744 7.992 27.9224 7.304 27.6184 6.904C27.3304 6.504 26.8824 6.304 26.2744 6.304C25.5384 6.304 24.7144 6.792 23.8024 7.768V16H21.0424V8.968C21.0424 7.992 20.8904 7.304 20.5864 6.904C20.2984 6.504 19.8424 6.304 19.2184 6.304C18.4824 6.304 17.6584 6.792 16.7464 7.768V16H13.9864ZM37.0689 16.288C36.0289 16.288 35.1889 15.976 34.5489 15.352C33.9089 14.712 33.5889 13.872 33.5889 12.832C33.5889 12.208 33.7169 11.656 33.9729 11.176C34.2449 10.68 34.6609 10.256 35.2209 9.904C35.7969 9.552 36.5169 9.256 37.3809 9.016C38.2609 8.776 39.3089 8.592 40.5249 8.464C40.5089 8.16 40.4609 7.872 40.3809 7.6C40.3169 7.312 40.1969 7.064 40.0209 6.856C39.8609 6.632 39.6449 6.464 39.3729 6.352C39.1009 6.224 38.7649 6.16 38.3649 6.16C37.7889 6.16 37.2209 6.272 36.6609 6.496C36.1169 6.72 35.5809 6.992 35.0529 7.312L34.0449 5.464C34.7009 5.048 35.4369 4.688 36.2529 4.384C37.0689 4.08 37.9489 3.928 38.8929 3.928C40.3649 3.928 41.4609 4.368 42.1809 5.248C42.9169 6.112 43.2849 7.368 43.2849 9.016V16H41.0049L40.8129 14.704H40.7169C40.1889 15.152 39.6209 15.528 39.0129 15.832C38.4209 16.136 37.7729 16.288 37.0689 16.288ZM37.9569 14.128C38.4369 14.128 38.8689 14.016 39.2529 13.792C39.6529 13.568 40.0769 13.248 40.5249 12.832V10.192C39.7249 10.288 39.0529 10.416 38.5089 10.576C37.9649 10.736 37.5249 10.92 37.1889 11.128C36.8529 11.32 36.6129 11.544 36.4689 11.8C36.3249 12.056 36.2529 12.328 36.2529 12.616C36.2529 13.144 36.4129 13.528 36.7329 13.768C37.0529 14.008 37.4609 14.128 37.9569 14.128ZM46.5879 16V4.216H48.8679L49.0599 6.304H49.1559C49.5719 5.536 50.0759 4.952 50.6679 4.552C51.2599 4.136 51.8679 3.928 52.4919 3.928C53.0519 3.928 53.4999 4.008 53.8359 4.168L53.3559 6.568C53.1479 6.504 52.9559 6.456 52.7799 6.424C52.6039 6.392 52.3879 6.376 52.1319 6.376C51.6679 6.376 51.1799 6.56 50.6679 6.928C50.1559 7.28 49.7159 7.904 49.3479 8.8V16H46.5879ZM59.6931 16.288C59.0051 16.288 58.4211 16.184 57.9411 15.976C57.4771 15.768 57.0931 15.48 56.7891 15.112C56.5011 14.728 56.2851 14.28 56.1411 13.768C56.0131 13.24 55.9491 12.656 55.9491 12.016V6.4H54.2691V4.336L56.0931 4.216L56.4291 1H58.7331V4.216H61.7331V6.4H58.7331V12.016C58.7331 13.392 59.2851 14.08 60.3891 14.08C60.5971 14.08 60.8051 14.056 61.0131 14.008C61.2371 13.96 61.4371 13.896 61.6131 13.816L62.0931 15.856C61.7731 15.968 61.4051 16.064 60.9891 16.144C60.5891 16.24 60.1571 16.288 59.6931 16.288ZM67.6689 7.648L67.1169 9.568H71.1249L70.5729 7.648C70.3169 6.816 70.0689 5.96 69.8289 5.08C69.6049 4.2 69.3809 3.328 69.1569 2.464H69.0609C68.8369 3.344 68.6129 4.224 68.3889 5.104C68.1649 5.968 67.9249 6.816 67.6689 7.648ZM62.4129 16L67.5249 0.303999H70.7889L75.9009 16H72.9729L71.7489 11.752H66.4689L65.2449 16H62.4129ZM77.8358 16V0.303999H82.0358C84.4358 0.303999 86.3078 0.951999 87.6518 2.248C88.9958 3.544 89.6678 5.488 89.6678 8.08C89.6678 9.376 89.4918 10.52 89.1398 11.512C88.8038 12.504 88.3078 13.336 87.6518 14.008C87.0118 14.664 86.2278 15.16 85.2998 15.496C84.3878 15.832 83.3478 16 82.1797 16H77.8358ZM80.6198 13.744H81.8438C83.4438 13.744 84.6678 13.288 85.5158 12.376C86.3798 11.448 86.8118 10.016 86.8118 8.08C86.8118 6.16 86.3798 4.76 85.5158 3.88C84.6518 3 83.4278 2.56 81.8438 2.56H80.6198V13.744Z" fill="#ffffff"/>
</svg>
